<?xml version="1.0" encoding="UTF-8"?>
<svg id="Capa_1" xmlns="http://www.w3.org/2000/svg" version="1.1" viewBox="0 0 567.07 102.91">
  <!-- Generator: Adobe Illustrator 30.1.0, SVG Export Plug-In . SVG Version: 2.1.1 Build 136)  -->
  <defs>
    <style>
      .st0 {
        fill: #ec671c;
      }

      .st1 {
        fill: #26282a;
      }
    </style>
  </defs>
  <path class="st0" d="M141.26,0h-39.51C99.5,0,97.36.99,95.91,2.72l-19.87,23.57L56.17,2.72C54.72,1,52.58,0,50.33,0H10.82C4.84,0,0,4.84,0,10.82v81.27c0,5.98,4.84,10.82,10.82,10.82h34.49c2.26,0,4.4-1,5.85-2.73l8.41-9.98-18.68-22.16-4.73,5.62c-1.39,1.65-4.08.97-4.08-1.19V24.59c0-2.16,2.69-3.14,4.08-1.49l39.88,47.31,39.88-47.31c1.39-1.65,4.08-.67,4.08,1.49v47.88c0,2.16-2.7,2.84-4.08,1.19l-4.73-5.62-18.68,22.16,8.41,9.98c1.45,1.73,3.6,2.73,5.85,2.73h34.49c5.98,0,10.82-4.84,10.82-10.82V10.82c0-5.98-4.84-10.82-10.82-10.82h0Z"/>
  <g>
    <path class="st1" d="M274.46,32.9c-16.43,0-24.65,6.18-24.65,18.55s8.22,18.55,24.65,18.55,24.65-6.18,24.65-18.55-8.22-18.55-24.65-18.55ZM283.77,57.86c-1.97,1.21-5.07,1.81-9.3,1.81s-7.28-.6-9.25-1.81-2.97-3.35-2.97-6.4.98-5.19,2.97-6.4c1.97-1.21,5.07-1.81,9.25-1.81s7.33.6,9.3,1.81,2.97,3.35,2.97,6.4-.98,5.19-2.97,6.4Z"/>
    <path class="st1" d="M393.94,32.9c-16.43,0-24.65,6.18-24.65,18.55s8.22,18.55,24.65,18.55,24.65-6.18,24.65-18.55-8.22-18.55-24.65-18.55ZM403.26,57.86c-1.97,1.21-5.07,1.81-9.3,1.81s-7.28-.6-9.25-1.81-2.95-3.35-2.95-6.4.98-5.19,2.95-6.4,5.07-1.81,9.25-1.81,7.33.6,9.3,1.81,2.95,3.35,2.95,6.4-.98,5.19-2.95,6.4Z"/>
    <path class="st1" d="M455.16,33.51c-.96,0-1.84.58-2.24,1.46l-11.14,25.56-11.8-27.02h-13.66l16.61,35.89h16.08c.96,0,1.81-.55,2.22-1.41l15.9-34.48h-12,.03Z"/>
    <path class="st1" d="M512.35,43.87c-1.18-2.75-2.92-4.91-5.17-6.5-2.27-1.56-4.81-2.7-7.64-3.4-2.85-.71-6.12-1.06-9.88-1.06-7.69,0-13.74,1.51-18.1,4.51-4.36,3-6.55,7.69-6.55,14.04s2.17,10.99,6.53,14.01c4.36,3.02,10.18,4.54,17.52,4.54,14.29,0,22.46-4.59,24.47-13.79h-12.27c-1.34,1.46-2.9,2.47-4.71,3.02s-4.31.86-7.49.86c-6.53,0-10.31-2.07-11.37-6.23h36.45c0-3.91-.6-7.23-1.79-10.01h0ZM478.17,46.99c.76-1.94,2.09-3.25,4.01-3.96,1.92-.71,4.41-1.06,7.46-1.06s5.37.35,7.26,1.06,3.25,2.02,4.06,3.96h-22.79,0Z"/>
    <path class="st1" d="M232.25,33.81h-45.75c-1.56,0-2.82,1.26-2.82,2.82v33.07h12.43v-24.95h8.29c2.39,0,4.34,1.94,4.34,4.34v20.64h12.45v-24.95h7.91c2.39,0,4.34,1.94,4.34,4.34v20.64h12.45v-22.31c0-7.51-6.1-13.61-13.61-13.61l-.03-.03Z"/>
    <path class="st1" d="M351.82,33.81h-45.75c-1.56,0-2.82,1.26-2.82,2.82v33.07h12.43v-24.95h8.29c2.39,0,4.34,1.94,4.34,4.34v20.64h12.45v-24.95h7.91c2.39,0,4.34,1.94,4.34,4.34v20.64h12.45v-22.31c0-7.51-6.1-13.61-13.61-13.61l-.03-.03Z"/>
    <path class="st1" d="M567.05,69.4v-21.68c0-7.86-6.38-14.22-14.22-14.22h-32.44c-1.56,0-2.82,1.26-2.82,2.82v33.07h12.45v-24.95h20.26c2.39,0,4.34,1.94,4.34,4.34v20.64h12.45l-.03-.03Z"/>
  </g>
</svg>